<svg width="33" height="31" viewBox="0 0 33 31" fill="none" xmlns="http://www.w3.org/2000/svg">
<path d="M32.9834 10.2148L31.5996 17.9812C31.4289 18.8391 30.7302 19.3608 29.9243 19.3706H9.74875L9.34818 21.5794H28.5769C29.5894 21.6546 30.2762 22.3563 30.2886 23.2537C30.2149 24.2422 29.4977 24.9159 28.5769 24.9281H7.30876C6.15851 24.8269 5.47264 23.93 5.5971 22.9331L6.50754 18.088L5.12366 4.47902L1.19053 3.26782C0.229375 2.89451 -0.162913 2.04393 0.0615696 1.16592C0.434827 0.250859 1.32921 -0.167219 2.21023 0.0615255L7.23591 1.62906C7.91296 1.87733 8.30244 2.41948 8.40128 3.05409L8.69261 5.76163L31.4903 8.25541C32.5378 8.47738 33.1064 9.28903 32.9834 10.2148ZM12.52 28.4439C12.52 29.8556 11.3501 31 9.90698 31C8.46387 31 7.29402 29.8556 7.29402 28.4439C7.29402 27.0321 8.46389 25.8877 9.90698 25.8877C11.3501 25.8877 12.52 27.0322 12.52 28.4439ZM28.1194 28.4439C28.1194 29.8556 26.9495 31 25.5064 31C24.0633 31 22.8934 29.8556 22.8934 28.4439C22.8934 27.0321 24.0633 25.8877 25.5064 25.8877C26.9495 25.8877 28.1194 27.0322 28.1194 28.4439Z" fill="#212122"/>
</svg>
