<svg width="35" height="36" viewBox="0 0 35 36" fill="none" xmlns="http://www.w3.org/2000/svg">
<path d="M19.6706 0C11.2041 0 4.33995 6.88956 4.33995 15.3887C4.33995 18.4086 5.20617 21.2256 6.70329 23.6024C6.69229 23.6072 6.6815 23.6116 6.67047 23.6166L0 30.3117L5.66636 36L12.5771 29.0614C12.575 29.0516 12.5722 29.0418 12.5701 29.032C14.6929 30.1477 17.1085 30.7787 19.6706 30.7787C28.1371 30.7787 35 23.888 35 15.3888C34.9999 6.88956 28.137 0 19.6706 0ZM19.6706 6.83631C24.3756 6.83631 28.1888 10.6655 28.1888 15.3887C28.1888 20.112 24.3756 23.9412 19.6706 23.9412C14.9655 23.9412 11.1511 20.112 11.1511 15.3887C11.1511 10.6655 14.9655 6.83631 19.6706 6.83631Z" fill="#212122"/>
</svg>
